# xmcd CD database file
#
# Track frame offsets:
#	150
#	17719
#	38043
#	54949
#	72663
#	87739
#	107184
#	127513
#	148430
#	169661
#	188908
#	208301
#	227473
#	246558
#	264750
#	281287
#	299259
#	318394
#
# Disc length: 4540 seconds
#
# Revision: 0
# Processed by: cddbd v1.5.2PL0 Copyright (c) Steve Scherf et al.
# Submitted via: CDex 1.50beta9
#
DISCID=0d11ba12
DTITLE=周杰伦 - JAY
DYEAR=2002
DGENRE=Blues
TTITLE0=爱在西元前
TTITLE1=简单爱
TTITLE2=对不起
TTITLE3=威廉古堡
TTITLE4=双截棍
TTITLE5=星晴
TTITLE6=娘子
TTITLE7=斗牛
TTITLE8=黑色幽默
TTITLE9=反方向的钟
TTITLE10=马戏团
TTITLE11=多谢你
TTITLE12=王八蛋
TTITLE13=流沙
TTITLE14=我可以
TTITLE15=沙滩
TTITLE16=普通朋友
TTITLE17=小镇姑娘
EXTD=YEAR: 2002
EXTT0=
EXTT1=
EXTT2=
EXTT3=
EXTT4=
EXTT5=
EXTT6=
EXTT7=
EXTT8=
EXTT9=
EXTT10=
EXTT11=
EXTT12=
EXTT13=
EXTT14=
EXTT15=
EXTT16=
EXTT17=
PLAYORDER=
